<svg width="191" height="28" viewBox="0 0 191 28" fill="none" xmlns="http://www.w3.org/2000/svg">
<path d="M20.9767 24.0771C21.601 24.8689 22.1503 25.5047 22.6248 25.9846C23.1242 26.4405 23.6612 26.7284 24.2355 26.8483V27.6041H19.2161C18.5669 26.8123 17.9425 26.0086 17.3432 25.1928L10.4509 15.7275H7.45421V24.0771C7.45421 24.8929 7.67896 25.5407 8.12846 26.0206C8.57796 26.4765 9.21475 26.7284 10.0388 26.7763L11.275 26.8483V27.6041H0V26.8483L1.23612 26.7763C2.06021 26.7284 2.697 26.4884 3.1465 26.0566C3.596 25.6247 3.82075 25.0369 3.82075 24.2931V5.72237C3.82075 4.97857 3.58352 4.39075 3.10904 3.95887C2.65954 3.52699 2.02275 3.28706 1.19867 3.23908L0 3.1671V2.41131H12.3612C14.1842 2.41131 15.745 2.69923 17.0435 3.27506C18.3421 3.8509 19.316 4.61868 19.9653 5.57841C20.6395 6.53814 20.9767 7.55784 20.9767 8.63753C20.9767 9.59729 20.7145 10.533 20.19 11.4447C19.6656 12.3325 18.879 13.1122 17.8302 13.7841C16.8063 14.4319 15.5702 14.8878 14.1218 15.1517L20.9767 24.0771ZM10.301 15.0077C11.6245 15.0077 12.7733 14.7198 13.7472 14.144C14.7211 13.5681 15.4578 12.8243 15.9572 11.9126C16.4817 10.9769 16.7439 9.99318 16.7439 8.96144C16.7439 7.95373 16.4941 7.006 15.9947 6.11825C15.4953 5.20652 14.7461 4.47472 13.7472 3.92288C12.7483 3.37103 11.5372 3.09512 10.1137 3.09512H7.45421V15.0077H10.301ZM47.3338 19.1465L46.3599 27.6041H25.5331V26.8483L26.7692 26.7763C27.5933 26.7284 28.2301 26.4884 28.6796 26.0566C29.1291 25.6247 29.3538 25.0369 29.3538 24.2931V5.72237C29.3538 4.97857 29.1166 4.39075 28.6421 3.95887C28.1926 3.52699 27.5558 3.28706 26.7318 3.23908L25.5331 3.1671V2.41131H46.1352V9.57327H45.386C45.0364 7.53385 44.3247 5.9503 43.2509 4.82262C42.1771 3.67095 40.6039 3.09512 38.5311 3.09512H32.9873V14.3959H36.9204C38.4188 14.3959 39.4551 14.0839 40.0295 13.4602C40.6039 12.8123 40.9659 11.7446 41.1158 10.2571H41.9773V19.3625H41.1158C40.9659 17.8509 40.5913 16.7712 39.992 16.1234C39.4177 15.4516 38.3938 15.1157 36.9204 15.1157H32.9873V24.1131C32.9873 24.9528 33.2495 25.6247 33.7739 26.1285C34.3233 26.6324 35.0475 26.8843 35.9465 26.8843H38.606C42.6766 26.8843 45.2986 24.305 46.4723 19.1465H47.3338ZM71.2486 14.1799C74.2453 14.3239 76.5803 14.9957 78.2533 16.1954C79.9515 17.395 80.8005 18.9306 80.8005 20.8021C80.8005 22.0737 80.3885 23.2374 79.5644 24.2931C78.7403 25.3248 77.6041 26.1405 76.1557 26.7404C74.7073 27.3162 73.0841 27.6041 71.2861 27.6041H59.187V26.8483L60.4232 26.7763C61.2473 26.7284 61.8841 26.4884 62.3336 26.0566C62.7831 25.6247 63.0078 25.0369 63.0078 24.2931V15.0077V5.72237C63.0078 4.97857 62.7706 4.39075 62.2961 3.95887C61.8466 3.52699 61.2098 3.28706 60.3857 3.23908L59.187 3.1671V2.41131H72.2975C74.4451 2.41131 76.1682 2.90316 77.4667 3.88689C78.7903 4.84662 79.452 6.13025 79.452 7.73779C79.452 8.81748 79.1024 9.82519 78.4032 10.7609C77.7289 11.6967 76.7675 12.4765 75.5189 13.1003C74.2703 13.7001 72.8469 14.06 71.2486 14.1799ZM66.6413 13.964H68.8513C70.1 13.964 71.2237 13.724 72.2226 13.2442C73.2215 12.7644 73.9956 12.1045 74.545 11.2648C75.0944 10.4251 75.369 9.47726 75.369 8.4216C75.369 6.88603 74.8322 5.6144 73.7583 4.60668C72.7095 3.59897 71.3736 3.09512 69.7503 3.09512H66.6413V13.964ZM70.9115 26.8843C71.9603 26.8843 72.9093 26.6324 73.7583 26.1285C74.6324 25.6247 75.3067 24.9289 75.7811 24.0411C76.2806 23.1534 76.5303 22.1697 76.5303 21.09C76.5303 19.8423 76.2057 18.7387 75.5563 17.7789C74.9071 16.7952 73.9831 16.0394 72.7844 15.5116C71.6108 14.9837 70.2498 14.7198 68.7015 14.7198H66.6413V24.1131C66.6413 24.9528 66.866 25.6247 67.3155 26.1285C67.765 26.6324 68.4144 26.8843 69.2633 26.8843H70.9115ZM100.601 26.7044C101.076 26.7044 101.513 26.6084 101.912 26.4165V27.0643C100.914 27.6881 99.8517 28 98.728 28C96.7801 28 95.707 26.8123 95.5066 24.437C94.4577 25.6847 93.3092 26.5964 92.0606 27.1722C90.8369 27.7241 89.6382 28 88.4646 28C86.9662 28 85.78 27.5801 84.906 26.7404C84.032 25.8766 83.595 24.7609 83.595 23.3933C83.595 22.2896 83.8822 21.4019 84.4565 20.7301C85.0309 20.0343 85.7301 19.5184 86.5542 19.1825C87.3783 18.8226 88.4646 18.4627 89.8131 18.1028L91.4987 17.599C92.9471 17.1431 94.0588 16.5913 94.8323 15.9434C95.6068 15.2956 95.9935 14.3599 95.9935 13.1362C95.9935 12.0325 95.6564 11.1688 94.9821 10.545C94.3332 9.9212 93.4465 9.60926 92.3228 9.60926C91.0242 9.60926 89.9754 10.0891 89.1763 11.0488C88.4021 12.0086 87.9277 13.4242 87.7529 15.2956H83.8947C84.1943 13.2802 85.0809 11.7567 86.5542 10.7249C88.0525 9.66927 89.9629 9.14139 92.2853 9.14139C94.3828 9.14139 95.9692 9.59729 97.0423 10.509C98.1417 11.4207 98.6905 12.7284 98.6905 14.4319V23.9332C98.6905 25.7806 99.3273 26.7044 100.601 26.7044ZM95.2443 16.5193C94.7948 16.9271 94.2957 17.251 93.746 17.491C93.2218 17.731 92.5475 17.9708 91.7234 18.2108C91.5736 18.2588 91.0242 18.4267 90.0753 18.7147C89.1513 18.9785 88.4646 19.4104 88.0151 20.0103C87.5656 20.5861 87.3408 21.3419 87.3408 22.2776C87.3408 23.4773 87.6405 24.449 88.2398 25.1928C88.8642 25.9126 89.7132 26.2725 90.787 26.2725C91.6361 26.2725 92.4726 26.0566 93.2967 25.6247C94.1459 25.1688 94.7948 24.605 95.2443 23.9332V16.5193ZM105.964 4.31877C105.964 3.57498 105.739 2.99914 105.29 2.59126C104.866 2.18338 104.278 1.97944 103.529 1.97944H103.005V1.29563L109.373 0V24.509C109.373 25.2528 109.585 25.8286 110.009 26.2365C110.435 26.6444 111.021 26.8724 111.77 26.9203L112.482 26.9563V27.6041H102.855V26.9563L103.567 26.9203C104.291 26.8724 104.866 26.6564 105.29 26.2725C105.739 25.8886 105.964 25.3008 105.964 24.509V4.31877ZM131.365 26.7044C131.839 26.7044 132.277 26.6084 132.676 26.4165V27.0643C131.677 27.6881 130.616 28 129.492 28C127.545 28 126.471 26.8123 126.271 24.437C125.222 25.6847 124.073 26.5964 122.825 27.1722C121.601 27.7241 120.402 28 119.229 28C117.731 28 116.544 27.5801 115.67 26.7404C114.796 25.8766 114.359 24.7609 114.359 23.3933C114.359 22.2896 114.646 21.4019 115.221 20.7301C115.795 20.0343 116.494 19.5184 117.319 19.1825C118.143 18.8226 119.229 18.4627 120.577 18.1028L122.263 17.599C123.711 17.1431 124.822 16.5913 125.597 15.9434C126.37 15.2956 126.758 14.3599 126.758 13.1362C126.758 12.0325 126.421 11.1688 125.747 10.545C125.097 9.9212 124.211 9.60926 123.087 9.60926C121.788 9.60926 120.739 10.0891 119.941 11.0488C119.166 12.0086 118.691 13.4242 118.517 15.2956H114.659C114.959 13.2802 115.845 11.7567 117.319 10.7249C118.817 9.66927 120.727 9.14139 123.05 9.14139C125.147 9.14139 126.733 9.59729 127.807 10.509C128.905 11.4207 129.455 12.7284 129.455 14.4319V23.9332C129.455 25.7806 130.092 26.7044 131.365 26.7044ZM126.009 16.5193C125.559 16.9271 125.059 17.251 124.511 17.491C123.986 17.731 123.312 17.9708 122.488 18.2108C122.338 18.2588 121.788 18.4267 120.84 18.7147C119.915 18.9785 119.229 19.4104 118.779 20.0103C118.33 20.5861 118.105 21.3419 118.105 22.2776C118.105 23.4773 118.405 24.449 119.004 25.1928C119.628 25.9126 120.477 26.2725 121.551 26.2725C122.4 26.2725 123.237 26.0566 124.061 25.6247C124.909 25.1688 125.559 24.605 126.009 23.9332V16.5193ZM155.607 26.9563V27.6041H146.168V26.9563L146.842 26.9203C148.366 26.8483 149.127 26.0446 149.127 24.509V15.7275C149.127 14.144 148.79 12.9443 148.116 12.1285C147.442 11.3127 146.456 10.9049 145.157 10.9049C144.208 10.9049 143.284 11.1208 142.385 11.5527C141.486 11.9606 140.737 12.5244 140.137 13.2442V24.509C140.137 25.2288 140.324 25.8046 140.699 26.2365C141.099 26.6684 141.673 26.8963 142.422 26.9203L143.134 26.9563V27.6041H133.619V26.9563L134.331 26.9203C135.055 26.8724 135.63 26.6564 136.054 26.2725C136.504 25.8886 136.729 25.3008 136.729 24.509V13.4602C136.729 12.6924 136.516 12.1166 136.092 11.7326C135.668 11.3248 135.068 11.1208 134.294 11.1208H133.769V10.437L139.95 9.14139V12.7404C140.674 11.6847 141.685 10.8209 142.984 10.1491C144.307 9.47726 145.669 9.14139 147.067 9.14139C148.79 9.14139 150.126 9.66927 151.075 10.7249C152.049 11.7567 152.536 13.2322 152.536 15.1517V24.509C152.536 25.2528 152.748 25.8286 153.173 26.2365C153.597 26.6444 154.184 26.8724 154.933 26.9203L155.607 26.9563ZM169.104 15.2956C169.104 13.5202 168.779 12.1285 168.13 11.1208C167.505 10.1131 166.606 9.60926 165.433 9.60926C164.484 9.60926 163.623 9.95719 162.848 10.653C162.074 11.3248 161.462 12.2725 161.013 13.4961C160.589 14.6958 160.376 16.0514 160.376 17.563C160.376 19.9863 160.926 21.8577 162.024 23.1774C163.148 24.473 164.684 25.1208 166.631 25.1208C167.83 25.1208 168.916 24.8689 169.89 24.365C170.89 23.8372 171.651 23.0574 172.175 22.0257H172.775C172.3 23.8731 171.401 25.3368 170.078 26.4165C168.779 27.4721 167.181 28 165.283 28C163.71 28 162.298 27.6401 161.05 26.9203C159.802 26.1765 158.828 25.1448 158.128 23.8252C157.454 22.4816 157.117 20.946 157.117 19.2185C157.117 17.323 157.517 15.6076 158.316 14.072C159.115 12.5364 160.201 11.3368 161.575 10.473C162.948 9.58523 164.484 9.14139 166.182 9.14139C168.03 9.14139 169.565 9.66927 170.789 10.7249C172.013 11.7806 172.737 13.3042 172.962 15.2956H169.104ZM183.171 28C181.598 28 180.187 27.6401 178.938 26.9203C177.689 26.1765 176.715 25.1328 176.017 23.7892C175.342 22.4456 175.005 20.91 175.005 19.1825C175.005 17.287 175.404 15.5835 176.204 14.072C177.003 12.5364 178.101 11.3368 179.5 10.473C180.898 9.58523 182.472 9.14139 184.22 9.14139C186.393 9.14139 188.053 9.84922 189.202 11.2648C190.35 12.6564 190.949 14.6118 191 17.1311H178.302C178.276 17.2991 178.264 17.491 178.264 17.7069C178.264 20.0343 178.813 21.8577 179.912 23.1774C181.036 24.473 182.572 25.1208 184.52 25.1208C185.718 25.1208 186.805 24.8689 187.779 24.365C188.777 23.8372 189.539 23.0574 190.064 22.0257H190.663C190.188 23.8731 189.289 25.3368 187.966 26.4165C186.667 27.4721 185.068 28 183.171 28ZM187.104 16.4473V15.9434C187.104 14.024 186.779 12.4884 186.13 11.3368C185.481 10.1851 184.544 9.60926 183.321 9.60926C182.472 9.60926 181.685 9.89717 180.961 10.473C180.236 11.0248 179.637 11.8287 179.163 12.8843C178.688 13.9161 178.401 15.1037 178.302 16.4473H187.104Z" fill="#494949"/>
<path d="M53.0006 14.5H51.095C51.8473 13.9867 52.4263 13.3641 52.8601 12.5666C52.9089 12.4769 52.9557 12.3853 53.0006 12.2916V14.5ZM54.0006 14.5V12.2916C54.0455 12.3853 54.0923 12.4769 54.1411 12.5666C54.5748 13.3641 55.1538 13.9867 55.9062 14.5H54.0006ZM54.0006 15.5H55.9062C55.1538 16.0133 54.5748 16.6359 54.1411 17.4334C54.0923 17.5231 54.0455 17.6147 54.0006 17.7084V15.5ZM53.0006 15.5V17.7089C52.9556 17.6151 52.9087 17.5232 52.8598 17.4333C52.4259 16.6359 51.8468 16.0133 51.0943 15.5H53.0006Z" fill="#ED870B" stroke="#ED870B"/>
</svg>
